<svg xmlns="http://www.w3.org/2000/svg" viewBox="8573 5451 24.5 24.5">
  <g id="instagram-logo" transform="translate(8573 5451)">
    <path id="Path_12" data-name="Path 12" d="M17.739,0H6.761A6.769,6.769,0,0,0,0,6.761V17.739A6.769,6.769,0,0,0,6.761,24.5H17.739A6.769,6.769,0,0,0,24.5,17.739V6.761A6.769,6.769,0,0,0,17.739,0Zm4.588,17.739a4.593,4.593,0,0,1-4.588,4.587H6.761a4.592,4.592,0,0,1-4.587-4.587V6.761A4.593,4.593,0,0,1,6.761,2.174H17.739a4.593,4.593,0,0,1,4.587,4.587V17.739Z"/>
    <path id="Path_13" data-name="Path 13" d="M47.281,40.97a6.313,6.313,0,1,0,6.313,6.313A6.32,6.32,0,0,0,47.281,40.97Zm0,10.452a4.139,4.139,0,1,1,4.139-4.139A4.144,4.144,0,0,1,47.281,51.422Z" transform="translate(-35.031 -35.033)"/>
    <path id="Path_14" data-name="Path 14" d="M120.515,28.251a1.593,1.593,0,1,0,1.127.467A1.6,1.6,0,0,0,120.515,28.251Z" transform="translate(-101.687 -24.157)"/>
  </g>
</svg>
