<?xml version="1.0" encoding="UTF-8"?>
<svg width="178px" height="60px" viewBox="0 0 178 60" version="1.1" xmlns="http://www.w3.org/2000/svg" xmlns:xlink="http://www.w3.org/1999/xlink">
    <!-- Generator: Sketch 44.1 (41455) - http://www.bohemiancoding.com/sketch -->
    <title>Logo</title>
    <desc>Created with Sketch.</desc>
    <defs></defs>
    <g id="Breakpoints" stroke="none" stroke-width="1" fill="none" fill-rule="evenodd">
        <g id="Medium-(768)---Tablets" transform="translate(-63.000000, -23.000000)" fill="#2F2F2D">
            <g id="Group-6">
                <g id="Desktop-/-Top-/-Logo" transform="translate(60.000000, 20.000000)">
                    <g id="Group-2" transform="translate(3.000000, 3.000000)">
                        <g id="Desktop-/-Logo-/-Logo-no-Text">
                            <g id="Page-1" transform="translate(0.319325, 0.085106)">
                                <path d="M57.6806693,25.9004664 C55.4234546,25.9004664 53.5960407,27.7228135 53.5960407,29.9696492 C53.5960407,32.2128876 55.4234546,34.0354241 57.6806693,34.0354241 C59.9365528,34.0354241 61.7633962,32.2128876 61.7633962,29.9696492 C61.7633962,27.7228135 59.9365528,25.9004664 57.6806693,25.9004664" id="Fill-1"></path>
                                <path d="M59.5822524,39.65488 C59.5716025,39.65488 59.5615231,39.6535547 59.5510633,39.654312 C59.5510633,39.6541227 59.5510633,39.6541227 59.5512535,39.6541227 C56.1640051,39.5683541 53.1200268,38.1748501 50.8804986,35.9569827 C50.7294978,35.8070295 50.5684176,35.6542364 50.4235025,35.4967098 L48.1442272,33.2277219 C47.2701722,32.4168011 46.7230321,31.2609124 46.7226517,29.977412 L46.7226517,29.9738146 L46.7226517,29.9700279 C46.7230321,28.6867168 47.2701722,27.5304494 48.1442272,26.7195286 L50.4235025,24.45073 C50.5684176,24.2930142 50.7294978,24.1404103 50.8804986,23.9904572 C53.1200268,21.7725897 56.1640051,20.3788965 59.5512535,20.2933172 C59.5510633,20.2931278 59.5510633,20.2931278 59.5510633,20.2929385 C59.5615231,20.2938852 59.5716025,20.2923705 59.5822524,20.2923705 C59.7931591,20.2923705 59.9641285,20.1242412 59.9641285,19.9144583 C59.9641285,19.8652312 59.9546196,19.8184656 59.9373135,19.7752972 L59.9375037,19.7752972 C58.4421393,15.7017597 55.7851719,11.6961933 52.7771371,8.73878416 C52.7077224,8.66361826 52.6078793,8.6164739 52.4971961,8.6164739 C52.3075893,8.6164739 52.150693,8.75393095 52.1208352,8.93417765 C52.1208352,8.93436698 52.1200744,8.93455632 52.1200744,8.93455632 C51.7518911,11.8417917 50.4037241,14.4951292 48.4253093,16.4625068 L43.9974106,20.8685162 C43.7463765,21.1352889 43.3909351,21.3024715 42.9953663,21.3024715 C42.2367489,21.3024715 41.6274208,20.6899735 41.6274208,19.9347171 L41.6274208,19.8285003 C41.628752,19.8031294 41.6295127,10.3858073 41.6295127,10.3858073 C41.6295127,7.74799531 42.8976151,5.2947847 44.7531753,3.68884719 C44.8395158,3.62011866 44.895428,3.51579521 44.895428,3.39746097 C44.895428,3.2473185 44.8073759,3.11800285 44.6791963,3.05817307 C41.2982238,1.45431823 37.4710953,0.431153138 33.5368969,0.19107665 L33.4828865,0.189372637 C33.2746424,0.189372637 33.1061452,0.354851225 33.1061452,0.561794129 C33.1061452,0.621813251 33.1240219,0.689405764 33.1489351,0.739579478 L33.148745,0.739200808 C34.0321187,2.72948791 34.5351377,4.92747525 34.5351377,7.24322882 C34.5351377,7.32237075 34.5345672,18.6871903 34.5341868,29.9700279 L34.5341868,29.9738146 L34.5341868,29.977412 C34.5345672,41.2600602 34.5351377,52.6246904 34.5351377,52.7040217 C34.5351377,55.0192073 34.0321187,57.2177626 33.148745,59.207671 C33.148745,59.207671 33.1489351,59.207671 33.1489351,59.2072924 C33.1240219,59.2572768 33.1061452,59.3252479 33.1061452,59.3848884 C33.1061452,59.5923993 33.2746424,59.7576886 33.4828865,59.7576886 L33.5368969,59.7559845 C37.4710953,59.51534 41.2982238,58.492743 44.6791963,56.8885095 C44.8073759,56.8286797 44.895428,56.6995534 44.895428,56.5492215 C44.895428,56.4308873 44.8395158,56.3269425 44.7531753,56.2580247 C42.8976151,54.6520872 41.6295127,52.1992552 41.6295127,49.5612539 C41.6295127,49.5612539 41.628752,40.1441211 41.6274208,40.1189396 L41.6274208,40.0127228 C41.6274208,39.257277 42.2367489,38.6449684 42.9953663,38.6449684 C43.3909351,38.6449684 43.7463765,38.8123403 43.9974106,39.0787343 L48.4253093,43.4847438 C50.4037241,45.4523107 51.7518911,48.1054588 52.1200744,51.0121262 C52.1200744,51.0125049 52.1208352,51.0125049 52.1208352,51.0125049 C52.150693,51.1931302 52.3075893,51.3305873 52.4971961,51.3305873 C52.6078793,51.3305873 52.7077224,51.2832536 52.7771371,51.2080877 C55.7851719,48.2510573 58.4421393,44.2456802 59.9375037,40.1719533 L59.9373135,40.1719533 C59.9546196,40.1289743 59.9641285,40.0822086 59.9641285,40.0329816 C59.9641285,39.8230093 59.7931591,39.65488 59.5822524,39.65488" id="Fill-6"></path>
                                <path d="M4.08287901,25.9004664 C6.33971335,25.9004664 8.16693712,27.7228135 8.16693712,29.9696492 C8.16693712,32.2128876 6.33971335,34.0354241 4.08287901,34.0354241 C1.82680537,34.0354241 -3.80354655e-05,32.2128876 -3.80354655e-05,29.9696492 C-3.80354655e-05,27.7228135 1.82680537,25.9004664 4.08287901,25.9004664" id="Fill-9"></path>
                                <path d="M2.18110573,39.65488 C2.19156549,39.65488 2.20183506,39.6535547 2.21229482,39.654312 C2.21210464,39.6541227 2.21191446,39.6541227 2.21191446,39.6541227 C5.59916284,39.5683541 8.64333132,38.1748501 10.8828595,35.9569827 C11.0336702,35.8070295 11.1947503,35.6542364 11.3398556,35.4967098 L13.6191309,33.2277219 C14.4931859,32.4168011 15.0403261,31.2609124 15.0407064,29.977412 L15.0407064,29.9738146 L15.0407064,29.9700279 C15.0403261,28.6867168 14.4931859,27.5304494 13.6191309,26.7195286 L11.3398556,24.45073 C11.1947503,24.2930142 11.0336702,24.1404103 10.8828595,23.9904572 C8.64333132,21.7725897 5.59916284,20.3788965 2.21191446,20.2933172 C2.21191446,20.2931278 2.21210464,20.2931278 2.21229482,20.2929385 C2.20183506,20.2938852 2.19156549,20.2923705 2.18110573,20.2923705 C1.97019908,20.2923705 1.79922966,20.1242412 1.79922966,19.9144583 C1.79922966,19.8652312 1.80873853,19.8184656 1.82585449,19.7752972 L1.82566431,19.7752972 C3.32121881,15.7017597 5.97799608,11.6961933 8.98622104,8.73878416 C9.05563577,8.66361826 9.15528869,8.6164739 9.26635225,8.6164739 C9.45576887,8.6164739 9.61266516,8.75393095 9.642523,8.93417765 C9.642523,8.93436698 9.64328371,8.93455632 9.64328371,8.93455632 C10.0112768,11.8417917 11.3596341,14.4951292 13.3376685,16.4625068 L17.7657574,20.8685162 C18.0167914,21.1352889 18.3722329,21.3024715 18.7678017,21.3024715 C19.5266092,21.3024715 20.1361276,20.6899735 20.1361276,19.9347171 L20.1361276,19.8285003 C20.1346062,19.8031294 20.1338455,10.3858073 20.1338455,10.3858073 C20.1338455,7.74799531 18.865743,5.2947847 17.0098025,3.68884719 C16.9238423,3.62011866 16.8679302,3.51579521 16.8679302,3.39746097 C16.8679302,3.2473185 16.9559823,3.11800285 17.0839716,3.05817307 C20.4649442,1.45431823 24.2918825,0.431153138 28.2262711,0.19107665 L28.2804716,0.189372637 C28.4885256,0.189372637 28.6572129,0.354851225 28.6572129,0.561794129 C28.6572129,0.621813251 28.6391461,0.689405764 28.6142328,0.739579478 L28.6142328,0.739200808 C27.7312395,2.72948791 27.2282205,4.92747525 27.2282205,7.24322882 C27.2282205,7.32237075 27.228791,18.6871903 27.2291714,29.9700279 L27.2291714,29.9738146 L27.2291714,29.977412 C27.228791,41.2600602 27.2282205,52.6246904 27.2282205,52.7040217 C27.2282205,55.0192073 27.7312395,57.2177626 28.6142328,59.207671 L28.6142328,59.2072924 C28.6391461,59.2572768 28.6572129,59.3252479 28.6572129,59.3848884 C28.6572129,59.5923993 28.4885256,59.7576886 28.2804716,59.7576886 L28.2262711,59.7559845 C24.2918825,59.51534 20.4649442,58.492743 17.0839716,56.8885095 C16.9559823,56.8286797 16.8679302,56.6995534 16.8679302,56.5492215 C16.8679302,56.4308873 16.9238423,56.3269425 17.0098025,56.2580247 C18.865743,54.6520872 20.1338455,52.1992552 20.1338455,49.5612539 C20.1338455,49.5612539 20.1346062,40.1441211 20.1361276,40.1189396 L20.1361276,40.0127228 C20.1361276,39.257277 19.5266092,38.6449684 18.7678017,38.6449684 C18.3722329,38.6449684 18.0167914,38.8123403 17.7657574,39.0787343 L13.3376685,43.4847438 C11.3596341,45.4523107 10.0112768,48.1054588 9.64328371,51.0121262 C9.64328371,51.0125049 9.642523,51.0125049 9.642523,51.0125049 C9.61266516,51.1931302 9.45576887,51.3305873 9.26635225,51.3305873 C9.15528869,51.3305873 9.05563577,51.2832536 8.98622104,51.2080877 C5.97799608,48.2510573 3.32121881,44.2456802 1.82566431,40.1719533 L1.82585449,40.1719533 C1.80873853,40.1289743 1.79922966,40.0822086 1.79922966,40.0329816 C1.79922966,39.8230093 1.97019908,39.65488 2.18110573,39.65488" id="Fill-14"></path>
                            </g>
                        </g>
                        <g id="Page-1" transform="translate(77.090909, 14.800000)">
                            <g id="Group-12">
                                <path d="M7.68268668,10.9798643 L5.72150694,10.9798643 C5.5458789,10.9798643 5.45845003,10.9363808 5.38488654,10.8190137 L2.03408848,5.83341367 L2.03408848,10.6874086 C2.03408848,10.8482592 1.90236745,10.9798643 1.74137509,10.9798643 L0.292828938,10.9798643 C0.131836572,10.9798643 0.000115544761,10.8482592 0.000115544761,10.6874086 L0.000115544761,0.409130127 C0.000115544761,0.248279494 0.131836572,0.131682025 0.292828938,0.131682025 L1.74137509,0.131682025 C1.90236745,0.131682025 2.03408848,0.248279494 2.03408848,0.409130127 L2.03408848,5.05840608 L5.6194424,0.248279494 C5.6922356,0.14630481 5.79507044,0.131682025 5.9560628,0.131682025 L7.624144,0.131682025 C7.8144077,0.131682025 7.90183657,0.204411139 7.90183657,0.307155443 C7.90183657,0.379884557 7.85831471,0.468006076 7.79977203,0.54073519 L4.05342575,5.38010734 L7.82904337,10.6727858 C7.87295038,10.7462846 7.90183657,10.8043909 7.90183657,10.8482592 C7.90183657,10.9363808 7.82904337,10.9798643 7.68268668,10.9798643" id="Fill-1"></path>
                                <path d="M19.4786128,10.9798643 L18.0004101,10.9798643 C17.6495392,10.9798643 17.3421901,10.9798643 17.1080194,10.4538289 L13.8592859,3.33330228 C13.8153789,3.24556557 13.771857,3.21632 13.7275649,3.21632 C13.6836579,3.21632 13.6543865,3.24556557 13.6543865,3.33330228 L13.6543865,10.6874086 C13.6543865,10.8482592 13.5373012,10.9798643 13.3763088,10.9798643 L12.132662,10.9798643 C11.9716697,10.9798643 11.8399486,10.8482592 11.8399486,10.6874086 L11.8399486,0.701585823 C11.8399486,0.379884557 12.1033907,0.117059241 12.4253754,0.117059241 L14.0056426,0.117059241 C14.3129917,0.117059241 14.473984,0.204411139 14.6496121,0.584603544 L18.0589528,8.09994532 C18.0886093,8.17267443 18.1325163,8.21654278 18.1760382,8.21654278 C18.2053095,8.21654278 18.2496017,8.17267443 18.2496017,8.08532253 L18.2496017,0.394507342 C18.2496017,0.233656709 18.3663019,0.117059241 18.5272942,0.117059241 L19.7859618,0.117059241 C19.9469542,0.117059241 20.0640396,0.233656709 20.0640396,0.394507342 L20.0640396,10.3949529 C20.0640396,10.7166542 19.8005975,10.9798643 19.4786128,10.9798643" id="Fill-3"></path>
                                <path d="M28.7289722,1.94433013 C28.6854504,1.76885671 28.6411582,1.71075038 28.4951867,1.71075038 C28.34883,1.71075038 28.3045378,1.76885671 28.2606308,1.94433013 L27.2072477,6.28652759 L29.7823553,6.28652759 L28.7289722,1.94433013 Z M32.6802179,10.9796719 L31.1288369,10.9796719 C30.997501,10.9796719 30.8800305,10.8630744 30.8511443,10.7314694 L30.1779035,7.95352506 L26.8120847,7.95352506 L26.1388439,10.7314694 C26.1095725,10.8630744 25.9928723,10.9796719 25.8611513,10.9796719 L24.3097703,10.9796719 C24.1634136,10.9796719 24.0463282,10.8776972 24.0463282,10.7314694 C24.0463282,10.7168466 24.0609639,10.687601 24.0609639,10.6583554 L26.4608286,1.4910238 C26.8120847,0.13148962 27.8658529,-0.000115443041 28.4951867,-0.000115443041 C29.1241353,-0.000115443041 30.1779035,0.13148962 30.5291596,1.4910238 L32.9286391,10.6583554 C32.9286391,10.687601 32.9432748,10.7168466 32.9432748,10.7314694 C32.9432748,10.8776972 32.8265746,10.9796719 32.6802179,10.9796719 L32.6802179,10.9796719 Z" id="Fill-5"></path>
                                <path d="M42.6469934,7.71948354 C42.6469934,6.91523038 42.222559,6.16985316 40.8471912,6.16985316 L38.9888463,6.16985316 L38.9888463,9.3860962 C39.3401024,9.3860962 39.881237,9.41534177 40.1885861,9.41534177 C42.0615666,9.41534177 42.6469934,8.93278987 42.6469934,7.90957975 L42.6469934,7.71948354 Z M42.5888359,3.08483038 C42.5888359,2.06123544 41.9302307,1.68142785 40.056865,1.68142785 C39.705609,1.68142785 39.2961954,1.69605063 38.9888463,1.71067342 L38.9888463,4.67871392 L40.8471912,4.67871392 C42.2079233,4.67871392 42.5888359,4.03531139 42.5888359,3.28954937 L42.5888359,3.08483038 Z M40.1885861,11.0965772 C39.003482,11.0965772 38.1110913,11.0238481 37.6570003,10.9361114 C37.1744084,10.8483747 36.9548734,10.6875241 36.9548734,10.1468658 L36.9548734,0.935665823 C36.9548734,0.40924557 37.1451371,0.219149367 37.6134785,0.146035443 C37.9936207,0.0875443038 38.9156679,-0.000192405069 40.056865,-0.000192405069 C42.7055361,-0.000192405069 44.5642661,0.760192405 44.5642661,2.9678481 L44.5642661,3.2603038 C44.5642661,4.22540759 44.1105604,5.08776709 43.2177845,5.46795949 C44.1105604,5.8481519 44.6374445,6.59352911 44.6374445,7.69023797 L44.6374445,7.93882532 C44.6374445,10.2634633 42.9108206,11.0965772 40.1885861,11.0965772 L40.1885861,11.0965772 Z" id="Fill-8"></path>
                                <path d="M51.7070507,11.0967311 C50.6093754,11.0967311 49.8198196,10.9943716 49.1169223,10.833521 C48.9709507,10.8042754 48.8392297,10.7023008 48.8392297,10.5414501 L48.8392297,9.48860962 C48.8392297,9.32775899 48.9709507,9.21116152 49.1169223,9.21116152 L49.1465788,9.21116152 C49.7316204,9.28389063 51.1951874,9.35700456 51.736322,9.35700456 C53.0388966,9.35700456 53.4336745,8.88946025 53.4336745,8.04133873 C53.4336745,7.47105013 53.155982,7.17859443 52.1900278,6.60830582 L50.2585045,5.45349063 C48.8973872,4.64923747 48.5318806,3.80111595 48.5318806,2.77790582 C48.5318806,1.16939949 49.4685635,-3.84810137e-05 52.1900278,-3.84810137e-05 C53.155982,-3.84810137e-05 54.5024636,0.146189367 54.9996912,0.263171646 C55.1460479,0.292417215 55.2631332,0.394391899 55.2631332,0.540619747 L55.2631332,1.62270582 C55.2631332,1.76893367 55.1606836,1.88591595 55.0143269,1.88591595 L54.9850555,1.88591595 C54.0194865,1.79817924 53.0535323,1.7396881 52.1022137,1.7396881 C51.0195593,1.7396881 50.5658536,2.11988051 50.5658536,2.77790582 C50.5658536,3.26045772 50.81466,3.55291342 51.7655933,4.07894886 L53.5218737,5.05867544 C55.1314122,5.95028051 55.5558466,6.88613873 55.5558466,8.04133873 C55.5558466,9.51785519 54.6341846,11.0967311 51.7070507,11.0967311" id="Fill-11"></path>
                                <path d="M65.9910406,1.81280203 L63.4301836,1.81280203 L63.4301836,10.6872932 C63.4301836,10.8481438 63.2984625,10.9797489 63.1374702,10.9797489 L61.6885389,10.9797489 C61.5279316,10.9797489 61.3958255,10.8481438 61.3958255,10.6872932 L61.3958255,1.81280203 L58.8353536,1.81280203 C58.6743612,1.81280203 58.5426402,1.71044253 58.5426402,1.5495919 L58.5426402,0.394391899 C58.5426402,0.233541266 58.6743612,0.116943797 58.8353536,0.116943797 L65.9910406,0.116943797 C66.152033,0.116943797 66.283754,0.233541266 66.283754,0.394391899 L66.283754,1.5495919 C66.283754,1.71044253 66.152033,1.81280203 65.9910406,1.81280203" id="Fill-13"></path>
                                <path d="M75.1827033,3.30394127 C75.1827033,2.20723241 74.4509198,1.7396881 72.987738,1.7396881 C72.680389,1.7396881 71.9486055,1.76893367 71.6851634,1.79817924 L71.6851634,5.08792101 C71.918949,5.1025438 72.7385465,5.13178937 72.987738,5.13178937 C74.4948269,5.13178937 75.1827033,4.72235139 75.1827033,3.43593114 L75.1827033,3.30394127 Z M77.3772835,10.9797489 L75.5921169,10.9797489 C75.4315097,10.9797489 75.3725819,10.833521 75.2997887,10.6872932 L73.1922523,6.78377924 L72.987738,6.78377924 C72.6072106,6.78377924 72.0217838,6.73991089 71.6851634,6.72567291 L71.6851634,10.6872932 C71.6851634,10.8481438 71.5680781,10.9797489 71.4070857,10.9797489 L69.9435187,10.9797489 C69.7825264,10.9797489 69.6511905,10.8481438 69.6511905,10.6872932 L69.6511905,0.628741266 C69.6511905,0.335900759 69.8268185,0.233541266 70.1195319,0.189672911 C70.8802016,0.073075443 71.918949,-3.84810137e-05 72.987738,-3.84810137e-05 C75.2408609,-3.84810137e-05 77.2020406,0.803829873 77.2020406,3.30394127 L77.2020406,3.43593114 C77.2020406,4.98556152 76.4263501,5.95028051 75.2262252,6.41820962 L77.5240253,10.6872932 C77.5529115,10.7315463 77.5529115,10.7754147 77.5529115,10.8042754 C77.5529115,10.9070197 77.494754,10.9797489 77.3772835,10.9797489 L77.3772835,10.9797489 Z" id="Fill-15"></path>
                                <path d="M85.1205926,11.0967311 C82.764635,11.0967311 81.0961686,10.073521 81.0961686,6.95925266 L81.0961686,0.394391899 C81.0961686,0.233926076 81.2282748,0.116943797 81.3892672,0.116943797 L82.8374282,0.116943797 C82.9984205,0.116943797 83.1301416,0.233926076 83.1301416,0.394391899 L83.1301416,6.95925266 C83.1301416,8.62586532 83.5399403,9.4154957 85.1205926,9.4154957 C86.701245,9.4154957 87.1106586,8.62586532 87.1106586,6.95925266 L87.1106586,0.394391899 C87.1106586,0.233926076 87.2423796,0.116943797 87.403372,0.116943797 L88.8519181,0.116943797 C89.0129105,0.116943797 89.1446315,0.233926076 89.1446315,0.394391899 L89.1446315,6.95925266 C89.1446315,10.073521 87.4765503,11.0967311 85.1205926,11.0967311" id="Fill-17"></path>
                                <path d="M98.7313418,3.37724759 C98.7313418,2.14931848 97.9995583,1.68138937 96.5363765,1.68138937 C96.2290274,1.68138937 95.4972439,1.71063494 95.2338019,1.7394957 L95.2338019,5.21933367 C95.4675874,5.23395646 96.2871849,5.26320203 96.5363765,5.26320203 C98.1162585,5.26320203 98.7313418,4.67867544 98.7313418,3.50885266 L98.7313418,3.37724759 Z M96.5363765,6.92981468 C96.1558491,6.92981468 95.5704223,6.88594633 95.2338019,6.87170835 L95.2338019,10.6874856 C95.2338019,10.8483362 95.1167165,10.9799413 94.9557241,10.9799413 L93.4921572,10.9799413 C93.3311648,10.9799413 93.1998289,10.8483362 93.1998289,10.6874856 L93.1998289,0.628548861 C93.1998289,0.336093165 93.375457,0.233733671 93.6681704,0.189865316 C94.42884,0.072883038 95.4675874,0.000153924055 96.5363765,0.000153924055 C98.7894993,0.000153924055 100.750679,0.789399494 100.750679,3.37724759 L100.750679,3.50885266 C100.750679,6.09670076 98.7894993,6.92981468 96.5363765,6.92981468 L96.5363765,6.92981468 Z" id="Fill-19"></path>
                            </g>
                            <g id="Group-11" transform="translate(12.231405, 18.240000)">
                                <path d="M7.68268668,11.9803706 L5.72150694,11.9803706 C5.5458789,11.9803706 5.45845003,11.9368871 5.38488654,11.81952 L2.03408848,6.83392 L2.03408848,11.6879149 C2.03408848,11.8487656 1.90236745,11.9803706 1.74137509,11.9803706 L0.292828938,11.9803706 C0.131836572,11.9803706 0.000115544761,11.8487656 0.000115544761,11.6879149 L0.000115544761,1.40963646 C0.000115544761,1.24878582 0.131836572,1.13218835 0.292828938,1.13218835 L1.74137509,1.13218835 C1.90236745,1.13218835 2.03408848,1.24878582 2.03408848,1.40963646 L2.03408848,6.05891241 L5.6194424,1.24878582 C5.6922356,1.14681114 5.79507044,1.13218835 5.9560628,1.13218835 L7.624144,1.13218835 C7.8144077,1.13218835 7.90183657,1.20491747 7.90183657,1.30766177 C7.90183657,1.38039089 7.85831471,1.46851241 7.79977203,1.54124152 L4.05342575,6.38061367 L7.82904337,11.6732922 C7.87295038,11.7467909 7.90183657,11.8048972 7.90183657,11.8487656 C7.90183657,11.9368871 7.82904337,11.9803706 7.68268668,11.9803706" id="Fill-21"></path>
                                <path d="M17.2105847,11.8928263 C16.7418581,11.9655554 16.1714521,12.0971605 14.4298074,12.0971605 C12.5279407,12.0971605 11.049738,11.5857478 11.049738,9.10025924 L11.049738,3.99729215 C11.049738,1.51180354 12.5279407,1.00039089 14.4298074,1.00039089 C16.1714521,1.00039089 16.7418581,1.13199595 17.2105847,1.20510987 C17.4297346,1.23435544 17.5032981,1.30746937 17.5032981,1.51180354 L17.5032981,2.44766177 C17.5032981,2.60851241 17.3711919,2.74011747 17.2105847,2.74011747 L14.2252932,2.74011747 C13.3764244,2.74011747 13.0690753,3.03295797 13.0690753,3.99729215 L13.0690753,5.57655291 L17.0349566,5.57655291 C17.195949,5.57655291 17.32767,5.70815797 17.32767,5.86900861 L17.32767,6.92184911 C17.32767,7.08269975 17.195949,7.21430481 17.0349566,7.21430481 L13.0690753,7.21430481 L13.0690753,9.10025924 C13.0690753,10.065363 13.3764244,10.3578187 14.2252932,10.3578187 L17.2105847,10.3578187 C17.3711919,10.3578187 17.5032981,10.4894238 17.5032981,10.6502744 L17.5032981,11.5857478 C17.5032981,11.790082 17.4297346,11.8635808 17.2105847,11.8928263" id="Fill-23"></path>
                                <path d="M27.6163917,4.30444759 C27.6163917,3.20773873 26.8846083,2.74019443 25.4214264,2.74019443 C25.1140774,2.74019443 24.3822939,2.76944 24.1188518,2.79868557 L24.1188518,6.08842734 C24.3526374,6.10305013 25.1722349,6.1322957 25.4214264,6.1322957 C26.9285153,6.1322957 27.6163917,5.72285772 27.6163917,4.43643747 L27.6163917,4.30444759 Z M29.8109719,11.9802552 L28.0258053,11.9802552 C27.8651981,11.9802552 27.8062703,11.8340273 27.7334771,11.6877995 L25.6259407,7.78428557 L25.4214264,7.78428557 C25.040899,7.78428557 24.4554722,7.74041722 24.1188518,7.72617924 L24.1188518,11.6877995 C24.1188518,11.8486501 24.0017665,11.9802552 23.8407741,11.9802552 L22.3772071,11.9802552 C22.2162148,11.9802552 22.0848789,11.8486501 22.0848789,11.6877995 L22.0848789,1.62924759 C22.0848789,1.33640709 22.2605069,1.23404759 22.5532203,1.19017924 C23.31389,1.07358177 24.3526374,1.00046785 25.4214264,1.00046785 C27.6745493,1.00046785 29.635729,1.8043362 29.635729,4.30444759 L29.635729,4.43643747 C29.635729,5.98606785 28.8600385,6.95078684 27.6599136,7.41871595 L29.9577137,11.6877995 C29.9865999,11.7320527 29.9865999,11.775921 29.9865999,11.8047818 C29.9865999,11.9075261 29.9284424,11.9802552 29.8109719,11.9802552 L29.8109719,11.9802552 Z" id="Fill-25"></path>
                                <path d="M38.0519323,2.94483646 C38.0080253,2.76936304 37.9641183,2.71125671 37.8181468,2.71125671 C37.6717901,2.71125671 37.6274979,2.76936304 37.5835909,2.94483646 L36.5302078,7.28703392 L39.1053154,7.28703392 L38.0519323,2.94483646 Z M42.003178,11.9801782 L40.451797,11.9801782 C40.3204611,11.9801782 40.2029906,11.8635808 40.1741044,11.7319757 L39.5008636,8.95403139 L36.1346596,8.95403139 L35.461804,11.7319757 C35.4325326,11.8635808 35.3158324,11.9801782 35.1841114,11.9801782 L33.6327304,11.9801782 C33.4863737,11.9801782 33.3692883,11.8782035 33.3692883,11.7319757 C33.3692883,11.7173529 33.383924,11.6881073 33.383924,11.6588618 L35.7837887,2.49153013 C36.1346596,1.13199595 37.188813,1.00039089 37.8181468,1.00039089 C38.4470954,1.00039089 39.5008636,1.13199595 39.8521197,2.49153013 L42.2515992,11.6588618 C42.2515992,11.6881073 42.2662349,11.7173529 42.2662349,11.7319757 C42.2662349,11.8782035 42.1495347,11.9801782 42.003178,11.9801782 L42.003178,11.9801782 Z" id="Fill-27"></path>
                                <path d="M55.4235094,11.9803706 L53.9456919,11.9803706 C53.8139709,11.9803706 53.7115212,11.8341428 53.7115212,11.6879149 L53.7115212,4.88947443 C53.7115212,4.78711494 53.6968855,4.74324658 53.6676142,4.74324658 C53.6529785,4.74324658 53.6237071,4.78711494 53.5944358,4.83098329 L52.1897967,7.62355038 C52.1019827,7.78440101 51.9117189,7.87213772 51.7214552,7.87213772 L50.2436378,7.87213772 C50.053374,7.87213772 49.8627252,7.78440101 49.7752963,7.62355038 L48.3556364,4.83098329 C48.326365,4.78711494 48.2970937,4.74324658 48.282458,4.74324658 C48.2531867,4.74324658 48.238551,4.78711494 48.238551,4.88947443 L48.238551,11.6879149 C48.238551,11.8341428 48.1361013,11.9803706 48.0043803,11.9803706 L46.5261777,11.9803706 C46.3948418,11.9803706 46.2777564,11.9076415 46.2777564,11.7614137 L46.2777564,1.70209215 C46.2777564,1.38039089 46.5411985,1.11756557 46.8627981,1.11756557 L48.0633081,1.11756557 C48.2970937,1.11756557 48.5019931,1.26340861 48.6044427,1.46851241 L50.8140437,5.94231494 C50.8872221,6.07353519 50.9164934,6.14703392 50.9750361,6.14703392 C51.0339639,6.14703392 51.0628501,6.07353519 51.1360285,5.94231494 L53.3456294,1.46851241 C53.4480791,1.26340861 53.6529785,1.11756557 53.8871492,1.11756557 L55.0872741,1.11756557 C55.4088737,1.11756557 55.6723158,1.38039089 55.6723158,1.70209215 L55.6723158,11.7614137 C55.6723158,11.9076415 55.5556155,11.9803706 55.4235094,11.9803706" id="Fill-29"></path>
                                <path d="M62.6254913,11.9803706 L61.17656,11.9803706 C61.0155677,11.9803706 60.8842318,11.8487656 60.8842318,11.6879149 L60.8842318,1.39501367 C60.8842318,1.23416304 61.0155677,1.11756557 61.17656,1.11756557 L62.6254913,1.11756557 C62.7864837,1.11756557 62.9182047,1.23416304 62.9182047,1.39501367 L62.9182047,11.6879149 C62.9182047,11.8487656 62.7864837,11.9803706 62.6254913,11.9803706" id="Fill-31"></path>
                                <path d="M75.6355618,11.9803706 L73.674382,11.9803706 C73.498754,11.9803706 73.4113251,11.9368871 73.3377616,11.81952 L69.9869636,6.83392 L69.9869636,11.6879149 C69.9869636,11.8487656 69.8552425,11.9803706 69.6942502,11.9803706 L68.245704,11.9803706 C68.0847117,11.9803706 67.9529906,11.8487656 67.9529906,11.6879149 L67.9529906,1.40963646 C67.9529906,1.24878582 68.0847117,1.13218835 68.245704,1.13218835 L69.6942502,1.13218835 C69.8552425,1.13218835 69.9869636,1.24878582 69.9869636,1.40963646 L69.9869636,6.05891241 L73.5723175,1.24878582 C73.6454958,1.14681114 73.7479455,1.13218835 73.9089379,1.13218835 L75.5770191,1.13218835 C75.7672828,1.13218835 75.8547117,1.20491747 75.8547117,1.30766177 C75.8547117,1.38039089 75.8111898,1.46851241 75.7526471,1.54124152 L72.0063008,6.38061367 L75.7819185,11.6732922 C75.8258255,11.7467909 75.8547117,11.8048972 75.8547117,11.8487656 C75.8547117,11.9368871 75.7819185,11.9803706 75.6355618,11.9803706" id="Fill-33"></path>
                            </g>
                        </g>
                    </g>
                </g>
            </g>
        </g>
    </g>
</svg>