<svg xmlns="http://www.w3.org/2000/svg" viewBox="8425.46 5450.219 31.307 25.544">
  <defs>
    <style>
      .cls-1 {
        fill: none;
        stroke: #000;
        stroke-width: 2px;
      }
    </style>
  </defs>
  <g id="twitter-logo-silhouette" transform="translate(8425.999 5394.559)">
    <g id="Group_1" data-name="Group 1" transform="translate(0.001 57.441)">
      <path id="Path_15" data-name="Path 15" class="cls-1" d="M28.025,60.134a11.48,11.48,0,0,1-3.3.905,5.773,5.773,0,0,0,2.527-3.178,11.59,11.59,0,0,1-3.653,1.4A5.753,5.753,0,0,0,13.8,64.5,16.321,16.321,0,0,1,1.953,58.492a5.755,5.755,0,0,0,1.779,7.674,5.749,5.749,0,0,1-2.6-.721v.072a5.754,5.754,0,0,0,4.611,5.637,5.823,5.823,0,0,1-1.515.2,5.518,5.518,0,0,1-1.082-.107A5.752,5.752,0,0,0,8.512,75.24,11.534,11.534,0,0,1,1.372,77.7,12.217,12.217,0,0,1,0,77.618,16.25,16.25,0,0,0,8.813,80.2c10.575,0,16.356-8.759,16.356-16.356l-.019-.744A11.48,11.48,0,0,0,28.025,60.134Z" transform="translate(-0.001 -57.441)"/>
    </g>
  </g>
</svg>
